<?xml version="1.0" encoding="utf-8"?>
<!DOCTYPE svg PUBLIC "-//W3C//DTD SVG 1.0//EN" "http://www.w3.org/TR/2001/REC-SVG-20010904/DTD/svg10.dtd">
<svg version="1.0" xmlns="http://www.w3.org/2000/svg" width="344px" height="344px" viewBox="0 0 344 344" preserveAspectRatio="xMidYMid meet">
 <g fill="#000000">
  <path d="M0 172 l0 -172 172 0 172 0 0 172 0 172 -172 0 -172 0 0 -172z m215.30 113.68 c3.02 -2.55 4.97 -9.41 3.59 -12.66 -0.24 -0.60 -0.87 -1.44 -1.34 -1.91 l-0.91 -0.84 -1.24 0.67 c-3.43 1.85 -5.61 8.90 -3.96 12.77 0.64 1.51 1.78 2.86 2.42 2.86 0.24 0 0.87 -0.40 1.44 -0.87z m-14.95 -7.32 c3.39 -3.43 3.63 -11.32 0.34 -13.44 -0.74 -0.50 -0.91 -0.50 -1.85 -0.03 -3.02 1.58 -4.60 8.10 -2.79 11.66 0.67 1.38 2.15 2.96 2.72 2.96 0.24 0 0.94 -0.50 1.58 -1.14z m-14.88 -7.83 c0.91 -1.01 1.58 -2.55 1.81 -4.13 0.37 -2.69 -1.21 -6.35 -3.29 -7.56 -0.84 -0.50 -1.11 -0.50 -1.78 -0.13 -1.91 1.01 -2.99 4.30 -2.35 7.12 0.57 2.35 1.28 3.63 2.72 4.90 1.28 1.11 1.78 1.08 2.89 -0.20z m-14.81 -7.93 c0.97 -1.58 0.87 -4.03 -0.20 -6.21 -0.91 -1.85 -2.92 -3.76 -3.93 -3.76 -0.91 0 -2.15 1.44 -2.55 2.92 -0.67 2.45 1.24 6.65 3.73 8.16 1.28 0.77 1.98 0.50 2.96 -1.11z m-15.35 -7.36 c0.60 -1.21 0.60 -1.38 0.07 -2.92 -0.87 -2.69 -3.63 -5.41 -5.48 -5.41 -0.81 0 -1.61 0.91 -1.91 2.12 -0.37 1.38 1.18 4.23 3.26 6.11 2.15 1.91 3.16 1.95 4.06 0.10z m67.96 -5.01 c2.39 -1.48 4.47 -5.68 4.74 -9.54 0.17 -2.65 -0.37 -4.17 -1.95 -5.31 -0.81 -0.57 -0.97 -0.60 -1.85 -0.13 -3.22 1.71 -6.28 7.66 -5.61 11.05 0.40 2.15 2.05 4.64 3.06 4.64 0.27 0 1.01 -0.30 1.61 -0.71z m-83.35 -2.28 c0.50 -1.58 -1.95 -4.94 -4.57 -6.28 -1.71 -0.84 -2.45 -0.81 -3.02 0.27 -0.77 1.41 2.22 5.34 5.14 6.75 1.21 0.57 2.12 0.30 2.45 -0.74z m65.94 -1.68 c1.95 -1.44 3.53 -4.74 3.56 -7.53 0.07 -3.53 -1.78 -6.01 -4 -5.48 -2.22 0.57 -4.94 5.01 -4.94 8.10 0 1.85 0.94 4.03 2.15 5.04 1.28 1.08 1.55 1.04 3.22 -0.13z m-18.04 -3.49 c4 -2.69 4.43 -9.41 0.81 -11.66 -1.34 -0.84 -1.95 -0.64 -3.93 1.28 -3.06 2.89 -2.86 8.20 0.40 10.41 1.34 0.91 1.31 0.91 2.72 -0.03z m-63.53 -1.41 c0.91 -1.11 -2.22 -4.37 -5.34 -5.54 -1.68 -0.64 -2.39 -0.47 -2.39 0.60 0 0.71 3.43 3.90 5.07 4.70 1.75 0.87 2.12 0.91 2.65 0.24z m46.63 -2.65 c2.62 -2.35 2.32 -6.62 -0.67 -9.10 -0.87 -0.74 -1.31 -0.87 -2.22 -0.71 -2.02 0.30 -3.83 2.59 -3.83 4.77 0 1.68 1.65 4.40 3.22 5.34 1.51 0.91 2.25 0.84 3.49 -0.30z m-16.63 -5.01 l0.64 -1.28 -0.91 -1.85 c-1.41 -2.89 -4.17 -4.40 -6.18 -3.36 -1.51 0.81 -2.18 2.28 -1.68 3.80 0.50 1.61 2.52 3.76 4.17 4.50 1.28 0.57 1.38 0.57 2.35 0.03 0.54 -0.34 1.28 -1.14 1.61 -1.85z m-18.41 -2.08 c1.04 -1.01 1.04 -1.68 0.07 -3.26 -1.11 -1.85 -3.73 -3.63 -5.27 -3.63 -1.04 0 -2.62 0.91 -2.86 1.65 -0.44 1.44 1.68 4.03 4.37 5.27 2.12 1.01 2.69 1.01 3.70 -0.03z m-17.94 -3.19 c0.34 -0.20 0.64 -0.67 0.64 -1.01 0 -1.04 -2.18 -3.22 -4.06 -4.03 -2.22 -0.94 -3.53 -0.97 -4.43 -0.07 l-0.71 0.74 1.31 1.38 c1.34 1.38 4.84 3.33 5.98 3.33 0.34 0 0.91 -0.17 1.28 -0.34z m-6.99 -13.07 c1.01 -0.40 1.91 -1.28 1.91 -1.88 0 -0.81 -1.78 -2.59 -3.19 -3.22 -2.45 -1.11 -5.68 -0.60 -6.55 1.01 -0.47 0.91 1.01 2.59 3.19 3.59 1.78 0.84 3.29 1.01 4.64 0.50z m20.76 -0.47 c2.18 -1.48 2.32 -2.89 0.44 -4.77 -1.61 -1.61 -3.83 -2.39 -5.48 -1.88 -1.58 0.47 -3.06 1.88 -3.06 2.92 0 1.08 1.88 3.12 3.53 3.86 1.81 0.84 3.19 0.81 4.57 -0.13z m20.12 -0.24 c1.24 -0.87 2.12 -2.79 1.85 -4 -0.30 -1.41 -2.35 -3.63 -3.73 -4.06 -2.35 -0.81 -5.85 1.51 -5.85 3.86 0 1.65 1.31 3.46 3.16 4.40 1.91 0.94 3.02 0.91 4.57 -0.20z m19.05 0.50 c1.04 -0.30 2.69 -2.28 3.16 -3.83 0.74 -2.45 -0.44 -5.07 -2.79 -6.28 -0.81 -0.40 -1.21 -0.44 -2.15 -0.13 -2.62 0.87 -4.80 3.90 -4.37 6.11 0.27 1.41 2.02 3.56 3.36 4.17 1.01 0.44 1.21 0.44 2.79 -0.03z m61.68 -1.44 c2.35 -2.28 4.27 -6.58 4.27 -9.61 0 -1.65 -0.84 -3.46 -2.05 -4.33 -0.87 -0.64 -0.91 -0.64 -2.22 0.03 -3.02 1.55 -5.71 5.78 -6.05 9.44 -0.24 2.49 0.30 4.10 1.78 5.38 1.01 0.91 1.28 0.97 2.08 0.67 0.50 -0.20 1.48 -0.91 2.18 -1.58z m-41.49 1.14 c2.18 -1.14 3.90 -4.17 3.90 -6.92 0.03 -2.18 -0.81 -3.86 -2.39 -4.80 -1.04 -0.60 -1.08 -0.60 -2.72 0.24 -2.52 1.28 -4.43 4.20 -4.43 6.79 0 1.55 0.84 3.29 2.08 4.33 1.11 0.94 2.22 1.08 3.56 0.37z m19.85 -0.03 c3.43 -1.75 5.85 -8.50 4.13 -11.59 -1.38 -2.49 -3.12 -2.59 -5.68 -0.24 -3.06 2.79 -4.27 7.09 -2.79 9.98 1.14 2.22 2.52 2.82 4.33 1.85z m-106.49 -12.90 c1.24 -0.67 2.15 -2.02 1.91 -2.86 -0.24 -0.97 -2.05 -2.18 -3.73 -2.45 -2.45 -0.40 -6.55 1.65 -6.55 3.26 0 0.84 1.78 2.05 3.66 2.55 1.48 0.37 3.46 0.17 4.70 -0.50z m22.04 -3.36 c1.65 -0.74 3.19 -2.49 3.19 -3.53 0 -1.78 -2.49 -3.66 -4.77 -3.63 -2.49 0.03 -5.98 2.49 -5.98 4.17 0 0.81 1.28 2.25 2.62 2.96 1.58 0.81 3.22 0.84 4.94 0.03z m22.61 -4.23 c2.25 -0.97 3.76 -2.89 3.76 -4.84 0 -2.02 -2.96 -4.33 -4.97 -3.86 -1.95 0.47 -4.13 1.95 -4.97 3.33 -1.01 1.71 -1.01 2.49 -0.07 3.70 1.65 2.08 3.83 2.69 6.25 1.68z m22.07 -3.49 c2.59 -1.18 4.67 -4.06 4.67 -6.48 0.03 -1.51 -0.91 -2.89 -2.55 -3.76 -1.14 -0.64 -1.24 -0.64 -2.72 -0.07 -2.75 1.04 -5.27 4.17 -5.27 6.52 0 1.31 1.28 3.12 2.69 3.83 1.44 0.74 1.51 0.74 3.19 -0.03z m-75.75 -0.91 c2.89 -0.87 5.38 -2.82 5.38 -4.30 0 -0.74 -1.88 -2.15 -3.22 -2.42 -2.18 -0.40 -6.72 1.71 -8.06 3.73 -0.77 1.18 -0.30 2.15 1.31 2.89 1.71 0.77 2.32 0.77 4.60 0.10z m99.77 -3.83 c2.18 -1.55 4 -5.58 3.53 -7.93 -0.27 -1.51 -2.12 -3.49 -3.22 -3.49 -2.92 0 -6.75 4.17 -7.22 7.79 -0.20 1.81 0.84 3.80 2.52 4.67 1.01 0.54 1.24 0.57 2.28 0.13 0.64 -0.27 1.58 -0.81 2.12 -1.18z m22.17 -3.63 c1.71 -1.31 2.28 -2.02 3.46 -4.43 1.88 -3.86 1.51 -6.99 -0.97 -8.60 -0.87 -0.57 -0.94 -0.57 -2.72 0.37 -3.63 1.88 -6.32 6.65 -5.68 10.08 0.27 1.31 1.61 3.12 2.69 3.53 0.94 0.37 1.78 0.10 3.22 -0.94z m-96.51 -0.24 c2.28 -0.67 4.20 -2.15 4.94 -3.80 0.60 -1.31 0.60 -1.44 0.07 -2.25 -0.97 -1.48 -2.52 -2.25 -4.06 -2.02 -2.96 0.44 -6.05 2.49 -6.92 4.57 -0.50 1.28 0.24 2.49 2.15 3.36 1.71 0.77 1.71 0.77 3.83 0.13z m120.03 -4.43 c2.15 -1.91 4.40 -6.32 4.64 -8.97 0.17 -2.28 -0.60 -4.10 -2.12 -4.80 -0.97 -0.47 -1.18 -0.47 -2.42 0.20 -4.20 2.12 -7.79 8.47 -6.85 11.99 0.44 1.61 1.51 3.09 2.52 3.46 1.04 0.40 2.35 -0.17 4.23 -1.88z m-152.15 -0.64 c2.18 -0.67 4.57 -2.35 5.58 -3.86 0.71 -1.08 0.77 -1.34 0.37 -1.95 -0.24 -0.37 -1.01 -0.94 -1.71 -1.21 -1.21 -0.47 -1.48 -0.47 -3.22 0.03 -2.72 0.77 -4.97 2.08 -6.45 3.80 -0.71 0.81 -1.31 1.58 -1.31 1.68 0 0.60 0.97 1.44 2.18 1.88 1.41 0.47 1.98 0.44 4.57 -0.37z m58.35 -3.29 c2.65 -1.38 4.77 -4 4.77 -5.91 0 -0.87 -1.51 -2.55 -2.65 -2.96 -2.02 -0.71 -6.45 1.61 -8.16 4.27 -1.08 1.75 -1.14 2.42 -0.40 3.59 1.28 1.91 3.86 2.32 6.45 1.01z m25.46 -7.79 c2.45 -1.41 4.50 -4.47 4.50 -6.69 0 -1.75 -1.81 -3.66 -3.43 -3.63 -2.59 0.07 -5.85 2.55 -7.32 5.61 -1.01 2.02 -1.04 2.22 -0.57 3.09 0.54 1.04 1.78 2.28 2.59 2.59 0.84 0.34 2.79 -0.10 4.23 -0.97z m-56.14 -0.50 c2.45 -0.91 4.94 -2.92 5.81 -4.70 0.64 -1.28 0.64 -1.51 0.24 -2.32 -1.01 -1.91 -3.86 -2.15 -6.92 -0.54 -2.49 1.28 -3.93 2.52 -4.87 4.10 -0.97 1.68 -0.77 2.45 0.97 3.49 1.38 0.84 2.45 0.84 4.77 -0.03z m-34.67 -0.87 c3.22 -1.01 7.29 -4.50 7.29 -6.21 0 -0.30 -0.40 -0.87 -0.91 -1.28 -1.31 -1.04 -3.46 -0.77 -6.58 0.77 -2.49 1.21 -5.95 4.37 -5.95 5.38 0 0.57 0.94 1.44 2.02 1.88 0.91 0.34 1.65 0.24 4.13 -0.54z m115.03 -5.81 c2.89 -1.28 5.71 -5.14 6.05 -8.16 0.20 -1.68 -0.91 -3.56 -2.32 -4.06 -2.72 -0.97 -8.13 3.59 -9.34 7.93 -0.44 1.48 0.10 3.02 1.38 4.13 1.21 1.01 2.32 1.04 4.23 0.17z m-51.50 -5.11 c1.88 -0.94 4.74 -3.93 5.21 -5.41 0.74 -2.22 -0.74 -4.27 -3.06 -4.27 -1.14 0 -4.64 1.75 -6.15 3.06 -1.61 1.41 -3.19 3.86 -3.19 4.94 0 0.94 1.68 2.65 2.79 2.82 0.97 0.17 2.75 -0.30 4.40 -1.14z m76.93 -2.52 c2.65 -1.38 5.74 -6.08 6.11 -9.34 0.20 -1.88 -0.50 -3.39 -2.02 -4.37 -0.77 -0.50 -0.94 -0.50 -2.39 0.13 -3.22 1.44 -5.85 4.37 -7.02 7.93 -0.71 2.02 -0.50 3.46 0.71 4.90 1.44 1.71 2.39 1.85 4.60 0.74z m-109.52 -2.25 c2.12 -1.04 5.34 -3.83 6.08 -5.27 0.74 -1.41 0.60 -2.15 -0.57 -3.16 -0.87 -0.74 -1.28 -0.84 -2.25 -0.67 -3.29 0.57 -8.40 4.20 -9.81 6.95 l-0.67 1.31 1.04 1.04 c0.94 0.94 1.21 1.01 2.69 0.87 0.91 -0.10 2.49 -0.57 3.49 -1.08z m134.98 -5.54 c2.89 -1.85 5.58 -5.98 6.38 -9.84 0.34 -1.61 0.30 -1.98 -0.27 -3.12 -0.34 -0.71 -1.04 -1.58 -1.51 -1.95 -0.87 -0.64 -0.91 -0.64 -2.59 0.10 -3.39 1.44 -7.12 6.55 -7.66 10.45 -0.34 2.49 1.48 5.34 3.39 5.34 0.40 0 1.41 -0.44 2.25 -0.97z m-74.81 -1.28 c2.69 -1.38 5.01 -4 5.88 -6.62 0.37 -1.14 0.34 -1.48 -0.17 -2.42 -0.34 -0.60 -1.08 -1.34 -1.71 -1.65 -1.01 -0.47 -1.21 -0.47 -2.92 0.17 -3.39 1.28 -6.82 4.60 -7.69 7.46 -0.34 1.14 -0.30 1.41 0.30 2.22 0.34 0.50 1.14 1.14 1.75 1.48 1.18 0.57 2.52 0.40 4.57 -0.64z m-30.23 -8.33 c2.22 -1.04 5.01 -3.49 6.28 -5.51 1.38 -2.22 1.24 -3.73 -0.44 -4.57 -1.44 -0.77 -2.52 -0.60 -5.04 0.71 -4.17 2.18 -7.86 6.62 -6.95 8.33 1.01 2.02 3.26 2.39 6.15 1.04z m57.11 -2.52 c2.96 -1.41 5.51 -4.30 6.72 -7.49 0.50 -1.34 0.54 -1.81 0.20 -2.92 -0.44 -1.48 -1.75 -2.69 -2.96 -2.69 -1.18 0 -3.96 1.51 -5.71 3.12 -1.61 1.48 -2.96 3.53 -3.70 5.68 -0.40 1.18 -0.37 1.44 0.13 2.52 0.57 1.24 2.18 2.45 3.26 2.45 0.37 0 1.28 -0.30 2.05 -0.67z m27.65 -11.46 c3.06 -1.51 6.18 -5.61 7.16 -9.47 0.30 -1.28 0.27 -1.71 -0.20 -2.72 -0.71 -1.44 -1.68 -2.22 -2.86 -2.22 -2.08 0 -6.82 3.96 -8.33 6.95 -0.40 0.74 -0.87 2.05 -1.11 2.92 -0.34 1.38 -0.30 1.75 0.20 2.92 0.64 1.38 1.81 2.28 2.99 2.32 0.37 0 1.31 -0.34 2.15 -0.71z m-54.79 -0.97 c2.49 -1.24 5.85 -4.67 6.99 -7.12 0.97 -2.08 1.01 -2.35 0.34 -3.59 -0.71 -1.38 -2.25 -1.95 -3.83 -1.38 -3.33 1.18 -7.49 5.01 -8.97 8.20 -0.81 1.75 -0.81 1.91 -0.34 2.86 1.18 2.28 2.79 2.55 5.81 1.04z m82.34 -10.41 c3.43 -1.81 6.52 -6.05 7.66 -10.41 0.47 -1.88 0.47 -2.08 -0.13 -3.43 -1.11 -2.49 -2.05 -2.86 -4.43 -1.75 -3.39 1.58 -7.56 6.99 -8.26 10.78 -0.30 1.65 0.37 3.59 1.58 4.60 1.24 1.04 1.95 1.08 3.59 0.20z m-52.31 -4.94 c2.22 -1.11 5.54 -4.37 6.79 -6.72 0.50 -0.97 1.01 -2.49 1.14 -3.39 0.17 -1.41 0.07 -1.75 -0.74 -2.69 -0.64 -0.77 -1.18 -1.08 -1.88 -1.08 -3.39 0 -9.81 6.11 -11.09 10.51 -0.34 1.24 0.13 2.55 1.31 3.49 1.18 1.01 2.22 0.97 4.47 -0.13z m30.13 -15.22 c5.17 -2.62 9.74 -10.35 8 -13.61 -1.34 -2.45 -3.22 -2.32 -6.89 0.44 -3.53 2.69 -6.75 7.63 -6.75 10.35 0 1.24 0.87 2.72 1.95 3.29 1.24 0.71 1.34 0.67 3.70 -0.47z m30.64 -15.29 c3.06 -1.58 7.16 -7.53 8.06 -11.62 0.37 -1.65 0.34 -2.02 -0.17 -3.12 -0.34 -0.67 -1.01 -1.44 -1.51 -1.71 -0.84 -0.44 -1.08 -0.40 -2.72 0.40 -2.69 1.31 -6.32 5.14 -7.86 8.26 -2.08 4.17 -1.88 6.79 0.57 8.30 1.08 0.64 1.51 0.60 3.63 -0.50z"/>
 </g>
 <g fill="#ffffff">
  <path d="M212.65 287.46 c-2.22 -1.14 -3.36 -4.87 -2.75 -9.07 0.64 -4.43 2.42 -7.56 5.01 -8.70 1.68 -0.74 2.52 -0.60 3.86 0.67 1.24 1.18 1.75 2.79 1.68 5.78 -0.07 6.72 -4.43 13.07 -7.79 11.32z"/>
  <path d="M197.87 280.61 c-0.87 -0.34 -2.05 -1.58 -2.79 -2.96 -0.64 -1.14 -0.74 -1.88 -0.74 -5.07 0 -3.46 0.07 -3.83 1.01 -5.68 1.21 -2.35 2.72 -3.53 4.57 -3.53 4.33 0 5.85 8.84 2.49 14.65 -1.14 1.95 -3.16 3.12 -4.54 2.59z"/>
  <path d="M181.57 271.71 c-5.58 -4.87 -2.96 -16.93 3.02 -14.04 2.59 1.24 4.13 4.94 3.76 8.94 -0.50 5.21 -3.83 7.73 -6.79 5.11z"/>
  <path d="M166.73 264.72 c-4.43 -2.69 -5.51 -11.32 -1.61 -12.97 2.28 -0.94 4.84 0.54 6.38 3.73 1.11 2.22 1.28 6.08 0.37 7.83 -1.08 2.08 -3.12 2.65 -5.14 1.41z"/>
  <path d="M152.01 257.46 c-1.61 -0.81 -3.49 -2.86 -4.43 -4.77 -0.71 -1.41 -0.84 -2.08 -0.71 -3.59 0.10 -1.11 0.40 -2.08 0.77 -2.52 1.51 -1.65 4.67 -0.94 6.85 1.58 4.23 4.77 2.32 11.82 -2.49 9.31z"/>
  <path d="M220.71 252.05 c-2.49 -0.97 -3.86 -5.24 -3.02 -9.34 1.34 -6.52 6.48 -10.75 9.71 -8.06 1.44 1.24 1.81 2.75 1.61 6.35 -0.17 3.36 -0.91 5.68 -2.59 8.10 -1.48 2.18 -4.20 3.56 -5.71 2.96z"/>
  <path d="M136.46 249.74 c-4.10 -2.05 -6.79 -7.19 -4.77 -9.20 1.95 -1.95 7.36 0.81 8.94 4.57 0.71 1.65 0.60 3.70 -0.20 4.50 -0.81 0.81 -2.42 0.87 -3.96 0.13z"/>
  <path d="M201.60 247.42 c-3.12 -2.65 -2.86 -9.84 0.57 -13.50 1.38 -1.51 3.49 -2.35 4.97 -1.98 3.49 0.87 4.60 7.22 2.12 12.23 -1.88 3.83 -5.24 5.27 -7.66 3.26z"/>
  <path d="M184.09 243.82 c-1.58 -1.08 -2.49 -3.02 -2.62 -5.71 -0.17 -2.92 0.57 -5.14 2.22 -6.72 1.58 -1.51 2.42 -1.95 3.80 -1.95 5.58 0 6.62 10.82 1.34 14.34 -1.48 1.01 -3.29 1.01 -4.74 0.03z"/>
  <path d="M121.31 242.51 c-1.41 -0.57 -4.13 -2.72 -5.11 -4.10 -1.11 -1.55 -1.24 -2.92 -0.37 -3.70 1.65 -1.51 6.65 0.54 8.87 3.59 1.01 1.41 1.28 3.43 0.54 4.17 -0.47 0.47 -2.79 0.50 -3.93 0.03z"/>
  <path d="M166.42 240.06 c-1.51 -0.94 -3.02 -3.36 -3.36 -5.44 -0.27 -1.85 0.37 -4 1.68 -5.44 1.04 -1.11 1.31 -1.21 3.29 -1.34 1.95 -0.13 2.25 -0.07 3.22 0.77 1.78 1.48 2.55 3.33 2.55 6.05 0 3.73 -1.55 5.88 -4.40 6.11 -1.28 0.10 -1.88 -0.03 -2.99 -0.71z"/>
  <path d="M149.32 236.53 c-4.64 -2.15 -6.11 -8.43 -2.45 -10.31 1.51 -0.77 4.23 -0.50 5.91 0.64 1.55 1.01 3.09 3.80 3.09 5.51 0 1.71 -0.84 3.36 -2.08 4.13 -1.38 0.84 -2.72 0.84 -4.47 0.03z"/>
  <path d="M131.18 232.64 c-2.12 -1.01 -2.55 -1.38 -3.66 -2.99 -0.84 -1.28 -1.14 -3.12 -0.67 -4.40 0.60 -1.51 4.54 -2.02 6.79 -0.87 2.35 1.21 3.73 2.96 4.23 5.31 0.27 1.21 -0.44 2.89 -1.44 3.46 -1.14 0.60 -3.46 0.37 -5.24 -0.50z"/>
  <path d="M113.04 228.81 c-2.32 -1.11 -4.37 -3.12 -4.67 -4.57 -0.17 -0.84 -0.07 -1.21 0.64 -1.85 2.28 -2.15 8.63 -0.07 10.45 3.43 1.81 3.49 -1.81 5.21 -6.42 2.99z"/>
  <path d="M105.32 215.87 c-1.71 -0.77 -3.29 -2.32 -3.70 -3.53 -0.30 -0.97 0.67 -2.62 1.95 -3.29 1.31 -0.67 4.60 -0.74 6.38 -0.13 2.86 0.97 4.77 3.73 3.93 5.74 -0.87 2.08 -5.34 2.72 -8.57 1.21z"/>
  <path d="M126.14 216.04 c-1.71 -0.77 -3.43 -2.72 -3.70 -4.20 -0.74 -3.86 4.40 -6.25 8.84 -4.03 2.08 1.04 3.12 2.39 3.33 4.27 0.17 1.71 -0.37 2.82 -1.88 3.83 -1.44 0.97 -4.60 1.04 -6.58 0.13z"/>
  <path d="M146.23 215.84 c-1.48 -0.74 -1.91 -1.18 -2.65 -2.72 -1.04 -2.12 -0.94 -3.90 0.27 -5.61 1.44 -2.02 5.27 -2.86 7.63 -1.65 3.86 1.95 4.57 7.53 1.28 9.88 -1.61 1.18 -4.33 1.21 -6.52 0.10z"/>
  <path d="M166.99 216.07 c-0.64 -0.30 -1.61 -1.14 -2.18 -1.85 -0.84 -1.04 -1.04 -1.65 -1.14 -3.39 -0.20 -3.19 1.21 -5.54 4.03 -6.75 2.59 -1.08 5.07 -0.37 6.79 1.95 0.84 1.14 1.14 4.64 0.54 6.45 -1.14 3.46 -4.97 5.17 -8.03 3.59z"/>
  <path d="M187.59 216.21 c-2.35 -1.04 -3.76 -4.43 -3.12 -7.69 0.50 -2.82 2.05 -4.94 4.37 -6.15 1.95 -0.97 3.46 -1.04 4.90 -0.13 1.71 1.04 2.28 2.42 2.28 5.71 0 2.42 -0.13 3.09 -0.91 4.54 -1.04 2.02 -2.02 2.99 -3.70 3.70 -1.51 0.60 -2.45 0.64 -3.83 0.03z"/>
  <path d="M207.37 216.01 c-2.69 -1.61 -3.43 -6.32 -1.61 -10.31 1.75 -3.93 5.38 -6.35 8.06 -5.48 5.01 1.65 3.29 13.27 -2.35 15.82 -1.75 0.81 -2.75 0.81 -4.10 -0.03z"/>
  <path d="M227.09 215.40 c-3.06 -3.06 -2.25 -10.04 1.71 -14.34 2.65 -2.86 5.38 -3.63 7.32 -2.02 3.29 2.79 1.88 11.39 -2.55 15.69 -2.45 2.35 -4.57 2.59 -6.48 0.67z"/>
  <path d="M98.97 203.54 c-1.61 -0.37 -3.46 -1.48 -3.90 -2.32 -0.97 -1.81 0.57 -4.27 3.26 -5.17 6.21 -2.12 12.06 2.02 8.26 5.85 -1.78 1.75 -4.57 2.35 -7.63 1.65z"/>
  <path d="M120.77 199.65 c-1.61 -0.84 -2.49 -1.81 -2.89 -3.12 -1.31 -4.40 6.48 -8.16 10.85 -5.27 1.48 1.01 2.42 2.96 2.15 4.43 -0.30 1.51 -1.68 3.12 -3.39 3.90 -1.71 0.77 -5.31 0.84 -6.72 0.07z"/>
  <path d="M144.62 195.68 c-4.67 -1.65 -4.80 -7.53 -0.20 -10.01 3.22 -1.78 6.52 -1.55 8.36 0.57 2.75 3.16 0.87 8.06 -3.63 9.41 -2.18 0.64 -2.79 0.64 -4.54 0.03z"/>
  <path d="M167.10 192.02 c-2.25 -0.97 -3.53 -3.83 -2.86 -6.42 1.61 -6.38 9.61 -8.90 12.23 -3.86 0.74 1.44 0.64 4.30 -0.24 6.08 -1.75 3.63 -5.95 5.58 -9.14 4.20z"/>
  <path d="M89.83 190.85 c-1.58 -0.71 -2.35 -2.15 -1.98 -3.63 0.60 -2.42 5.38 -5.14 8.97 -5.14 3.93 0 6.11 2.39 4.77 5.21 -1.51 3.22 -8.10 5.24 -11.76 3.56z"/>
  <path d="M189.80 188.16 c-1.68 -0.87 -2.69 -2.79 -2.65 -5.07 0 -4.50 3.06 -8.53 7.09 -9.37 1.44 -0.34 1.88 -0.30 2.89 0.20 1.81 0.91 2.52 2.12 2.69 4.60 0.27 4.03 -1.75 7.76 -5.04 9.41 -2.05 1.04 -3.39 1.11 -4.97 0.24z"/>
  <path d="M213.12 184.43 c-1.08 -0.44 -2.42 -2.25 -2.69 -3.56 -0.84 -4.54 1.48 -9.68 5.38 -11.89 5.98 -3.43 9.54 2.65 5.98 10.21 -2.02 4.23 -5.68 6.45 -8.67 5.24z"/>
  <path d="M116.03 183.12 c-1.75 -0.81 -2.49 -1.85 -2.49 -3.49 0 -3.29 3.49 -6.11 8.10 -6.52 2.32 -0.24 3.66 0.24 4.84 1.65 1.65 1.95 0.74 5.48 -1.81 7.19 -2.75 1.81 -6.21 2.28 -8.63 1.18z"/>
  <path d="M235.66 180.77 c-2.49 -1.04 -3.53 -5.24 -2.25 -9.34 1.85 -5.91 7.29 -10.11 10.95 -8.43 2.82 1.24 3.12 6.21 0.74 11.22 -2.39 5.01 -6.38 7.79 -9.44 6.55z"/>
  <path d="M83.61 178.75 c-1.58 -0.50 -2.22 -1.01 -2.62 -2.02 -1.04 -2.49 2.59 -6.05 7.66 -7.56 2.28 -0.67 3.73 -0.67 5.31 -0.03 1.55 0.64 2.08 1.38 2.12 2.86 0 2.25 -2.39 4.70 -6.01 6.08 -2.02 0.74 -5.17 1.08 -6.45 0.67z"/>
  <path d="M141.93 175.53 c-4.17 -1.51 -3.76 -6.89 0.71 -9.84 1.65 -1.11 4.33 -2.08 5.74 -2.08 2.52 0 4.47 1.91 4.47 4.40 0 2.12 -0.44 3.22 -1.95 4.77 -2.49 2.59 -6.28 3.76 -8.97 2.75z"/>
  <path d="M167.30 168.10 c-1.61 -0.67 -3.02 -2.82 -3.02 -4.60 0 -1.68 1.85 -5.07 3.46 -6.42 2.28 -1.85 3.56 -2.35 5.85 -2.35 1.91 -0.03 2.18 0.07 3.12 1.01 2.96 2.96 1.31 8.77 -3.22 11.42 -1.51 0.87 -5.01 1.41 -6.18 0.94z"/>
  <path d="M110.62 166.63 c-0.57 -0.34 -1.24 -0.94 -1.41 -1.31 -1.95 -3.63 4.10 -9.44 9.94 -9.51 4.17 -0.07 5.85 2.42 4.10 6.05 -1.98 4.03 -9.31 6.82 -12.63 4.77z"/>
  <path d="M76.26 166.05 c-1.48 -0.77 -2.18 -2.02 -1.88 -3.26 0.34 -1.38 3.29 -4.33 5.51 -5.51 4.37 -2.32 7.69 -2.55 9.54 -0.74 1.24 1.24 1.21 2.49 -0.07 4.43 -2.59 3.90 -9.91 6.72 -13.10 5.07z"/>
  <path d="M193.23 160.58 c-3.36 -0.77 -4.40 -5.07 -2.18 -9.10 1.34 -2.49 4.40 -5.17 6.69 -5.88 1.65 -0.54 1.98 -0.57 3.26 -0.13 0.91 0.34 1.68 0.91 2.18 1.68 0.71 1.01 0.77 1.48 0.67 3.53 -0.13 2.86 -1.08 4.90 -3.16 7.09 -2.18 2.25 -5.11 3.33 -7.46 2.82z"/>
  <path d="M139.92 155.98 c-2.05 -0.57 -3.46 -2.75 -2.99 -4.67 1.18 -5.07 8.63 -9.61 12.90 -7.86 2.02 0.84 2.62 3.90 1.31 6.62 -1.78 3.66 -7.83 6.85 -11.22 5.91z"/>
  <path d="M218.16 152.85 c-1.08 -0.44 -2.42 -2.25 -2.69 -3.56 -0.81 -4.40 2.49 -10.31 6.99 -12.40 2.32 -1.08 3.96 -1.08 5.24 0 1.44 1.21 1.85 2.49 1.68 5.21 -0.47 6.55 -6.75 12.56 -11.22 10.75z"/>
  <path d="M105.48 150.23 c-1.85 -1.85 -1.11 -4.40 2.18 -7.39 2.52 -2.32 5.58 -3.80 8.30 -4 1.95 -0.17 2.22 -0.10 3.19 0.71 2.25 1.88 1.65 4.70 -1.61 7.73 -2.79 2.59 -5.21 3.70 -8.43 3.86 -2.52 0.10 -2.62 0.07 -3.63 -0.91z"/>
  <path d="M242.95 144.92 c-3.46 -2.42 -2.45 -9.71 2.02 -14.48 5.24 -5.58 10.85 -4.10 10.25 2.72 -0.34 4.17 -3.09 9 -6.42 11.22 -1.31 0.87 -1.95 1.08 -3.36 1.08 -1.04 0 -2.05 -0.20 -2.49 -0.54z"/>
  <path d="M167.43 143.98 c-2.45 -1.11 -3.16 -3.86 -1.81 -6.85 1.44 -3.22 6.11 -6.65 9.57 -7.05 4.10 -0.44 6.08 3.43 4 7.83 -1.98 4.23 -8.47 7.59 -11.76 6.08z"/>
  <path d="M137.90 135.82 c-1.18 -0.34 -2.12 -1.11 -2.52 -2.15 -1.28 -3.02 2.08 -7.69 7.39 -10.38 2.69 -1.34 4.33 -1.55 6.15 -0.74 3.43 1.51 2.72 5.78 -1.61 9.74 -2.89 2.65 -7.02 4.20 -9.41 3.53z"/>
  <path d="M194.98 132.39 c-1.48 -0.91 -2.28 -2.75 -2.05 -4.80 0.71 -5.91 8.57 -12.19 12.66 -10.11 2.45 1.28 3.06 5.07 1.34 8.67 -1.01 2.08 -4.03 5.17 -6.08 6.15 -1.91 0.94 -4.43 0.97 -5.88 0.10z"/>
  <path d="M223.57 121.41 c-0.74 -0.24 -1.38 -0.47 -1.41 -0.47 -0.07 0 -0.40 -0.64 -0.81 -1.41 -2.18 -4.30 1.78 -11.93 7.63 -14.61 5.71 -2.59 8.67 2.55 5.41 9.44 -2.45 5.14 -7.29 8.30 -10.82 7.05z"/>
  <path d="M167.03 120.40 c-2.99 -2.08 -1.91 -6.72 2.55 -10.95 3.73 -3.49 7.53 -4.80 10.11 -3.49 1.98 1.04 2.28 4 0.71 7.16 -1.24 2.49 -4.67 5.85 -7.12 6.99 -2.12 0.97 -5.07 1.14 -6.25 0.30z"/>
  <path d="M251.31 109.95 c-2.05 -1.08 -2.55 -2.12 -2.55 -5.27 0 -2.52 0.10 -2.99 1.28 -5.38 2.42 -4.84 7.16 -8.60 10.38 -8.16 1.65 0.24 2.45 0.91 3.16 2.79 2.52 6.58 -6.89 18.81 -12.26 16.02z"/>
  <path d="M198.88 105.55 c-3.29 -0.54 -4.23 -4.40 -2.15 -8.53 1.18 -2.32 5.17 -6.32 7.53 -7.49 2.55 -1.31 5.01 -1.38 6.21 -0.13 2.62 2.59 0.97 8.70 -3.46 12.73 -2.62 2.45 -5.88 3.83 -8.13 3.43z"/>
  <path d="M228.03 89.83 c-1.98 -1.08 -2.55 -4.57 -1.28 -7.93 1.31 -3.49 5.07 -7.56 8.63 -9.37 0.74 -0.37 1.95 -0.64 2.99 -0.64 1.41 0 1.88 0.17 2.62 0.91 1.11 1.11 1.31 1.91 1.14 4.60 -0.44 7.12 -9.41 15.02 -14.11 12.43z"/>
  <path d="M258.77 74.58 c-1.68 -1.01 -2.22 -2.39 -2.05 -5.21 0.17 -3.43 1.88 -6.82 5.11 -10.08 4.60 -4.64 8.77 -5.48 10.41 -2.05 2.15 4.54 -2.86 14.51 -8.63 17.20 -2.12 0.97 -3.43 1.01 -4.84 0.13z"/>
 </g>
</svg>